HIERARCHY
ROOT Hips
{
	OFFSET 0.000000 0.000000 0.000000
	CHANNELS 6 Xposition Yposition Zposition Xrotation Yrotation Zrotation
	JOINT Spine
	{
		OFFSET 0.000000 0.046887 0.070330
		CHANNELS 3 Xrotation Yrotation Zrotation
		JOINT Spine1
		{
			OFFSET 0.000000 0.016283 0.092349
			CHANNELS 3 Xrotation Yrotation Zrotation
			JOINT Spine2
			{
				OFFSET 0.000000 0.008173 0.093416
				CHANNELS 3 Xrotation Yrotation Zrotation
				JOINT Spine3
				{
					OFFSET 0.000000 0.000000 0.093773
					CHANNELS 3 Xrotation Yrotation Zrotation
					JOINT Neck
					{
						OFFSET 0.000000 -0.035165 0.246155
						CHANNELS 3 Xrotation Yrotation Zrotation
						JOINT Head
						{
							OFFSET 0.000000 -0.022390 0.126979
							CHANNELS 3 Xrotation Yrotation Zrotation
							End Site
							{
								OFFSET 0.000000 0.000000 0.000000
							}
						}
					}
					JOINT RightShoulder
					{
						OFFSET -0.030509 -0.050849 0.164750
						CHANNELS 3 Xrotation Yrotation Zrotation
						JOINT RightArm
						{
							OFFSET -0.151529 0.000000 0.000000
							CHANNELS 3 Xrotation Yrotation Zrotation
							JOINT RightForeArm
							{
								OFFSET -0.293509 0.000000 0.000000
								CHANNELS 3 Xrotation Yrotation Zrotation
								JOINT RightHand
								{
									OFFSET -0.257951 0.000000 0.000000
									CHANNELS 3 Xrotation Yrotation Zrotation
									JOINT RightHandEnd
									{
										OFFSET -0.071589 0.000000 0.000000
										CHANNELS 3 Xrotation Yrotation Zrotation
										End Site
										{
											OFFSET 0.000000 0.000000 0.000000
										}
									}
									JOINT RightHandThumb1
									{
										OFFSET -0.028635 -0.047726 -0.019090
										CHANNELS 3 Xrotation Yrotation Zrotation
										End Site
										{
											OFFSET 0.000000 0.000000 0.000000
										}
									}
								}
							}
						}
					}
					JOINT LeftShoulder
					{
						OFFSET 0.030509 -0.050849 0.164750
						CHANNELS 3 Xrotation Yrotation Zrotation
						JOINT LeftArm
						{
							OFFSET 0.151529 0.000000 0.000000
							CHANNELS 3 Xrotation Yrotation Zrotation
							JOINT LeftForeArm
							{
								OFFSET 0.293509 0.000000 0.000000
								CHANNELS 3 Xrotation Yrotation Zrotation
								JOINT LeftHand
								{
									OFFSET 0.257951 0.000000 0.000000
									CHANNELS 3 Xrotation Yrotation Zrotation
									JOINT LeftHandEnd
									{
										OFFSET 0.071589 0.000000 0.000000
										CHANNELS 3 Xrotation Yrotation Zrotation
										End Site
										{
											OFFSET 0.000000 0.000000 0.000000
										}
									}
									JOINT LeftHandThumb1
									{
										OFFSET 0.028635 -0.047726 -0.019090
										CHANNELS 3 Xrotation Yrotation Zrotation
										End Site
										{
											OFFSET 0.000000 0.000000 0.000000
										}
									}
								}
							}
						}
					}
				}
			}
		}
	}
	JOINT RightUpLeg
	{
		OFFSET -0.090511 0.000000 -0.026441
		CHANNELS 3 Xrotation Yrotation Zrotation
		JOINT RightLeg
		{
			OFFSET 0.000000 0.000000 -0.424335
			CHANNELS 3 Xrotation Yrotation Zrotation
			JOINT RightFoot
			{
				OFFSET 0.000000 0.000000 -0.414558
				CHANNELS 3 Xrotation Yrotation Zrotation
				JOINT RightToeBase
				{
					OFFSET 0.000000 -0.148042 -0.053883
					CHANNELS 3 Xrotation Yrotation Zrotation
					End Site
					{
						OFFSET 0.000000 0.000000 0.000000
					}
				}
			}
		}
	}
	JOINT LeftUpLeg
	{
		OFFSET 0.090511 0.000000 -0.026441
		CHANNELS 3 Xrotation Yrotation Zrotation
		JOINT LeftLeg
		{
			OFFSET 0.000000 0.000000 -0.424335
			CHANNELS 3 Xrotation Yrotation Zrotation
			JOINT LeftFoot
			{
				OFFSET 0.000000 0.000000 -0.414558
				CHANNELS 3 Xrotation Yrotation Zrotation
				JOINT LeftToeBase
				{
					OFFSET 0.000000 -0.148042 -0.053883
					CHANNELS 3 Xrotation Yrotation Zrotation
					End Site
					{
						OFFSET 0.000000 0.000000 0.000000
					}
				}
			}
		}
	}
}
MOTION
Frames: 4
Frame Time: 0.033333
0.096187 -0.934420 0.899267 8.819500 0.589500 94.209700 3.315200 -0.012400 -0.141900 1.151500 -1.204400 -0.013200 5.028800 3.317600 2.473200 1.476600 0.689400 -1.305500 -3.018200 11.991400 6.711200 -5.381400 -0.866800 -3.417100 4.640000 1.846300 20.389400 6.799000 -38.096300 22.803400 0.000000 0.000100 97.158800 -19.467700 -9.743700 -11.435700 0.000000 0.000000 0.000000 0.000000 0.000000 0.000000 16.549600 3.420000 -17.355100 -14.284200 37.747600 -27.891300 -0.000100 0.000000 -133.876800 -47.213800 -38.987500 -23.316700 0.000000 0.000000 0.000000 0.000000 0.000000 0.000000 -27.115700 14.349900 1.431800 47.131600 0.000000 0.000000 -6.906200 -1.371200 -18.761200 -8.372500 0.000000 0.000000 -8.072800 13.146500 19.395300 13.111000 0.000000 0.000000 -8.268400 -0.334500 6.825000 -2.544800 0.000000 0.000000 
0.098108 -0.935175 0.901024 8.018400 0.483800 93.860800 3.270900 -0.317300 -0.077300 1.162100 -1.346400 -0.033300 5.070300 2.906000 2.304700 1.466800 0.579000 -1.152300 -2.882900 12.067900 6.325500 -5.446000 -0.727900 -3.504400 4.605200 2.411800 20.028200 7.483100 -37.377800 22.999800 0.000000 0.000100 97.285500 -19.263200 -9.804200 -11.083200 0.000000 0.000000 0.000000 0.000000 0.000000 0.000000 17.553200 3.095500 -17.331800 -13.685600 38.815000 -28.348400 -0.000100 0.000000 -133.932400 -47.517500 -39.232100 -23.683700 0.000000 0.000000 0.000000 0.000000 0.000000 0.000000 -25.510300 14.035300 -1.002000 44.665700 0.000000 0.000000 -7.588700 -0.382600 -17.660100 -7.437300 0.000000 0.000000 -7.871500 12.320100 18.925300 12.998100 0.000000 0.000000 -8.342800 -0.260700 7.399200 -2.603800 0.000000 0.000000 
0.100635 -0.936991 0.903295 7.117200 0.209800 93.389400 3.258500 -0.550200 -0.023500 1.167300 -1.444000 -0.035900 5.232700 2.437700 2.244800 1.499300 0.379300 -0.863500 -2.603600 11.999100 5.761600 -5.617500 -0.711600 -3.523800 4.746600 2.972800 19.701400 8.004100 -36.608400 23.182000 0.000000 0.000100 97.349300 -19.136900 -9.948300 -10.857900 0.000000 0.000000 0.000000 0.000000 0.000000 0.000000 18.538000 2.631300 -17.379000 -13.059400 39.754000 -28.796300 -0.000100 0.000000 -134.072300 -47.558800 -39.710300 -23.924300 0.000000 0.000000 0.000000 0.000000 0.000000 0.000000 -24.011900 13.467000 -3.419200 42.606100 0.000000 0.000000 -7.446000 0.427400 -16.387900 -6.802800 0.000000 0.000000 -7.320900 11.304200 18.879900 12.612300 0.000000 0.000000 -8.332700 -0.097100 7.700700 -2.577700 0.000000 0.000000 
0.103497 -0.939617 0.905662 6.221000 -0.050100 93.040500 3.218100 -0.738100 0.031800 1.152400 -1.509200 -0.046100 5.417100 2.062900 2.170100 1.533600 0.197400 -0.646200 -2.263500 11.652100 5.246100 -5.748300 -0.776800 -3.604800 4.963500 3.233600 19.449300 8.512000 -35.877200 23.392200 0.000000 0.000100 97.439400 -19.056900 -10.199600 -10.691500 0.000000 0.000000 0.000000 0.000000 0.000000 0.000000 19.390600 2.145900 -17.290100 -12.592600 40.332500 -29.087000 -0.000100 0.000000 -134.230500 -47.506300 -40.131100 -23.944200 0.000000 0.000000 0.000000 0.000000 0.000000 0.000000 -22.455800 12.869500 -5.490300 40.596000 0.000000 0.000000 -7.523800 0.718000 -14.756000 -6.083400 0.000000 0.000000 -6.713900 10.274700 18.720800 12.157800 0.000000 0.000000 -8.285700 0.033100 8.012900 -2.429400 0.000000 0.000000 
